<?xml version="1.0" standalone="no"?>
<!DOCTYPE svg PUBLIC "-//W3C//DTD SVG 20010904//EN"
 "http://www.w3.org/TR/2001/REC-SVG-20010904/DTD/svg10.dtd">
<svg version="1.0" xmlns="http://www.w3.org/2000/svg"
 width="480.000000pt" height="492.000000pt" viewBox="0 0 480.000000 492.000000"
 preserveAspectRatio="xMidYMid meet">
<metadata>
Created by potrace 1.10, written by Peter Selinger 2001-2011
</metadata>
<g transform="translate(0.000000,492.000000) scale(0.100000,-0.100000)"
fill="#003075" stroke="none">
<path d="M2360 4830 c-8 -5 -26 -10 -40 -10 -14 0 -34 -7 -44 -15 -11 -8 -29
-15 -41 -15 -12 0 -30 -7 -41 -15 -10 -8 -28 -15 -39 -15 -11 0 -29 -7 -39
-15 -11 -8 -30 -15 -42 -15 -12 0 -27 -7 -34 -15 -7 -8 -23 -15 -35 -15 -12 0
-28 -7 -35 -15 -7 -8 -23 -15 -35 -15 -12 0 -28 -7 -35 -15 -7 -8 -18 -15 -25
-15 -6 0 -32 -11 -56 -25 -41 -23 -50 -28 -81 -40 -7 -3 -20 -9 -28 -14 -8 -5
-22 -12 -30 -15 -8 -4 -28 -15 -45 -26 -16 -11 -39 -24 -50 -30 -11 -6 -33
-19 -50 -30 -16 -11 -37 -23 -45 -27 -8 -4 -34 -20 -56 -35 -23 -15 -47 -28
-53 -28 -6 0 -11 -4 -11 -9 0 -6 -11 -16 -24 -23 -51 -28 -156 -101 -156 -109
0 -5 -7 -9 -15 -9 -8 0 -15 -4 -15 -9 0 -5 -20 -21 -45 -35 -25 -15 -45 -31
-45 -36 0 -6 -7 -10 -15 -10 -8 0 -15 -4 -15 -8 0 -5 -21 -23 -46 -41 -25 -18
-57 -44 -72 -58 -15 -13 -67 -61 -117 -106 -230 -208 -550 -550 -723 -773 -32
-42 -32 -43 -32 -155 1 -63 7 -150 15 -194 8 -44 15 -116 15 -160 0 -45 7
-107 15 -138 8 -32 15 -82 15 -111 0 -30 7 -73 15 -96 8 -23 15 -62 15 -87 0
-24 7 -60 15 -80 8 -19 15 -52 15 -73 0 -21 7 -54 15 -73 8 -20 15 -51 15 -69
1 -18 7 -44 15 -58 8 -14 15 -38 15 -55 0 -16 7 -41 15 -55 8 -14 15 -41 15
-60 0 -19 7 -44 15 -54 8 -11 15 -32 15 -46 0 -14 7 -35 15 -46 8 -10 15 -31
15 -45 0 -14 7 -34 15 -45 8 -10 15 -30 15 -44 0 -14 7 -34 15 -44 8 -11 15
-29 15 -41 0 -12 7 -30 15 -41 8 -10 15 -29 15 -40 0 -12 7 -27 15 -34 8 -7
15 -23 15 -35 0 -12 7 -28 15 -35 8 -7 15 -21 15 -30 0 -16 15 -52 42 -100 4
-8 11 -22 14 -30 3 -8 10 -22 15 -30 5 -8 12 -22 15 -30 3 -8 10 -22 15 -30 5
-8 12 -22 15 -30 3 -8 9 -22 14 -30 5 -8 21 -38 35 -67 14 -28 30 -55 35 -58
6 -3 10 -14 10 -25 0 -10 7 -20 15 -24 8 -3 15 -12 15 -20 0 -8 6 -21 12 -28
16 -17 35 -46 48 -73 5 -11 44 -72 87 -135 85 -124 128 -158 203 -160 19 0 46
-7 60 -15 14 -8 41 -14 61 -15 20 0 53 -7 72 -15 20 -8 52 -15 72 -15 20 0 52
-7 72 -15 19 -8 56 -15 82 -15 25 0 68 -7 95 -15 27 -8 72 -15 100 -15 28 0
67 -5 86 -11 19 -6 100 -14 180 -19 80 -4 223 -13 319 -21 141 -10 201 -10
310 0 75 7 208 17 296 21 88 5 176 13 195 19 19 6 58 11 86 11 28 0 71 7 94
15 23 8 68 15 99 15 31 1 67 7 81 15 14 8 42 14 63 15 21 0 54 7 74 15 19 8
52 15 72 15 20 0 45 7 55 15 11 8 34 15 52 15 59 0 110 32 164 103 27 36 50
69 50 73 0 3 12 23 28 43 30 40 47 67 62 96 6 11 19 34 30 50 11 17 25 41 30
55 6 13 15 27 19 30 4 3 17 25 30 50 12 25 27 54 33 65 19 35 26 49 48 95 12
25 26 52 31 60 5 8 12 22 15 30 9 24 35 83 50 113 8 16 14 37 14 47 0 9 7 23
15 30 8 7 15 22 15 34 0 11 7 30 15 40 8 11 15 29 15 41 0 12 7 30 15 41 8 10
15 30 15 44 0 14 7 34 15 44 8 11 15 31 15 45 0 14 7 35 15 45 8 11 15 34 15
50 0 17 7 40 15 50 8 11 15 36 15 56 0 20 7 45 15 56 8 10 15 35 15 54 0 19 7
46 15 60 8 14 14 42 15 63 0 21 7 54 15 74 8 19 15 52 15 73 0 21 7 57 15 80
8 23 15 63 15 89 0 25 7 68 15 95 8 27 15 74 15 105 0 31 5 72 11 91 6 19 14
103 19 185 5 83 14 209 21 281 l12 132 -29 28 c-16 16 -45 49 -64 74 -105 136
-251 298 -441 489 -171 170 -219 214 -360 333 -24 20 -62 53 -84 72 -22 20
-46 36 -52 36 -7 0 -13 4 -13 8 0 10 -96 82 -110 82 -5 0 -10 4 -10 9 0 10
-239 173 -290 197 -8 4 -19 13 -23 21 -4 7 -17 13 -27 13 -10 0 -22 5 -25 11
-4 5 -17 15 -28 20 -12 5 -35 18 -52 29 -16 11 -37 22 -45 26 -8 3 -22 10 -30
15 -8 5 -22 12 -30 15 -8 3 -22 9 -30 14 -8 5 -35 19 -60 31 -25 12 -52 25
-60 30 -8 5 -22 12 -30 15 -8 3 -28 12 -43 20 -16 7 -37 14 -47 14 -9 0 -23 7
-30 15 -7 8 -22 15 -34 15 -11 0 -30 7 -40 15 -11 8 -30 15 -42 15 -12 0 -27
7 -34 15 -7 8 -24 15 -39 15 -15 0 -35 6 -46 14 -11 7 -33 15 -50 18 -16 3
-37 8 -45 11 -8 4 -22 2 -30 -3z m59 -151 c20 -6 48 -18 63 -25 14 -8 35 -14
45 -14 11 0 28 -7 39 -15 10 -8 29 -15 40 -15 12 0 27 -7 34 -15 7 -8 22 -15
34 -15 11 0 30 -7 40 -15 11 -8 27 -15 37 -15 9 0 22 -7 29 -15 7 -8 20 -15
30 -15 10 0 23 -7 30 -15 7 -8 23 -15 36 -15 12 0 26 -5 29 -11 4 -5 17 -14
28 -20 12 -5 29 -13 37 -18 8 -5 22 -12 30 -15 8 -4 29 -15 45 -26 17 -11 41
-25 55 -31 14 -5 39 -21 57 -35 17 -13 38 -24 47 -24 8 0 19 -6 23 -12 8 -13
36 -33 63 -45 8 -3 31 -18 50 -33 19 -15 43 -30 53 -33 9 -4 17 -11 17 -17 0
-5 5 -10 10 -10 11 0 246 -173 265 -195 6 -6 30 -27 55 -45 69 -52 116 -97
355 -335 236 -235 256 -257 379 -404 43 -53 85 -100 93 -104 18 -11 17 -237
-2 -342 -8 -44 -14 -114 -15 -155 0 -42 -7 -102 -15 -133 -8 -32 -15 -80 -15
-106 0 -26 -7 -70 -15 -97 -8 -27 -15 -68 -15 -90 0 -23 -7 -58 -15 -77 -8
-20 -15 -52 -15 -72 0 -20 -7 -52 -15 -72 -8 -19 -15 -50 -15 -67 -1 -17 -7
-42 -15 -56 -8 -14 -15 -38 -15 -55 0 -16 -7 -41 -15 -55 -8 -14 -14 -39 -15
-56 0 -16 -7 -39 -15 -50 -8 -10 -15 -33 -15 -50 0 -17 -7 -37 -15 -44 -8 -7
-15 -27 -15 -45 0 -18 -7 -38 -15 -45 -8 -7 -15 -24 -15 -39 0 -14 -7 -35 -15
-45 -8 -11 -15 -30 -15 -42 0 -12 -7 -27 -15 -34 -8 -7 -15 -21 -15 -30 0 -10
-6 -31 -14 -47 -15 -30 -41 -89 -50 -113 -3 -8 -10 -22 -15 -30 -5 -8 -12 -22
-15 -30 -3 -8 -10 -22 -15 -30 -5 -8 -12 -22 -15 -30 -3 -8 -10 -22 -15 -30
-5 -8 -12 -22 -15 -30 -3 -8 -10 -22 -15 -30 -5 -8 -12 -22 -15 -30 -4 -8 -15
-28 -26 -45 -11 -16 -24 -39 -29 -50 -5 -11 -20 -36 -33 -55 -13 -19 -27 -42
-31 -50 -4 -8 -16 -28 -27 -45 -11 -16 -24 -40 -30 -52 -5 -13 -14 -23 -20
-23 -5 0 -10 -5 -10 -11 0 -5 -16 -31 -35 -57 -39 -50 -78 -70 -160 -81 -27
-4 -60 -12 -72 -19 -12 -7 -37 -12 -56 -12 -19 0 -51 -7 -70 -15 -20 -8 -51
-15 -69 -15 -18 0 -55 -7 -82 -15 -27 -8 -75 -15 -106 -15 -31 0 -79 -7 -106
-15 -27 -8 -78 -15 -114 -15 -36 0 -110 -7 -164 -15 -138 -21 -634 -21 -772 0
-54 8 -128 15 -164 15 -36 0 -90 7 -120 15 -30 8 -80 15 -111 15 -31 0 -76 7
-99 15 -23 8 -63 15 -89 15 -25 1 -57 7 -71 15 -14 8 -42 14 -63 15 -21 0 -48
5 -59 11 -12 7 -47 15 -77 19 -53 8 -111 26 -138 43 -14 9 -172 244 -203 302
-6 11 -19 34 -30 50 -11 17 -22 37 -26 45 -3 8 -9 22 -14 30 -5 8 -21 38 -35
65 -14 28 -29 57 -34 65 -28 50 -41 80 -41 93 0 8 -7 20 -15 27 -8 7 -15 20
-15 30 0 10 -7 23 -15 30 -8 7 -15 22 -15 34 0 12 -7 31 -15 42 -8 10 -15 29
-15 40 0 12 -7 27 -15 34 -8 7 -15 22 -15 34 0 11 -7 30 -15 40 -8 11 -15 31
-15 45 0 14 -7 35 -15 45 -8 11 -15 29 -15 41 0 12 -7 30 -15 41 -8 10 -15 30
-15 44 0 14 -7 36 -15 50 -8 14 -15 39 -15 55 0 17 -7 39 -15 49 -8 11 -15 36
-15 56 0 20 -7 45 -15 56 -8 10 -15 37 -15 59 0 22 -7 51 -15 65 -8 14 -15 45
-15 70 0 25 -7 56 -15 70 -8 14 -14 46 -15 71 0 26 -7 63 -15 82 -8 20 -15 58
-15 84 0 26 -7 73 -15 103 -8 30 -15 84 -15 120 0 36 -7 94 -15 130 -8 36 -14
112 -15 170 0 58 -4 120 -10 138 -10 38 -2 59 41 101 14 14 41 46 59 71 19 25
41 52 49 61 9 9 61 67 116 130 183 209 486 499 650 624 28 20 52 40 55 44 11
16 129 101 139 101 6 0 11 4 11 9 0 6 11 16 24 23 14 7 58 36 98 63 40 28 80
53 88 58 8 4 29 16 45 27 17 11 39 24 50 30 11 6 34 19 50 30 17 11 53 31 80
45 52 27 74 38 102 55 10 6 25 13 33 16 8 3 22 10 30 15 8 5 22 12 30 15 8 3
22 10 30 15 8 5 22 12 30 15 8 3 28 12 43 20 16 7 35 14 42 14 7 0 27 7 44 15
17 8 45 22 62 30 17 8 38 15 48 15 9 0 26 7 37 15 10 8 31 15 46 15 15 0 30 5
33 10 8 13 20 13 64 -1z"/>
<path d="M2385 4291 c-10 -32 3 -58 31 -64 29 -5 37 7 32 50 -2 22 -9 29 -30
31 -19 2 -28 -2 -33 -17z"/>
<path d="M2363 4204 c-3 -10 -1 -31 7 -48 21 -52 24 -86 7 -104 -25 -29 -31
-61 -11 -69 10 -4 20 0 26 10 11 21 47 22 54 2 4 -8 12 -15 19 -15 22 0 24 27
4 64 -23 43 -24 74 -4 100 17 23 20 52 5 61 -5 3 -15 -5 -22 -19 -15 -35 -44
-33 -57 4 -11 34 -19 37 -28 14z"/>
<path d="M2333 4094 c-3 -8 -1 -20 6 -27 8 -8 11 -4 11 16 0 30 -7 35 -17 11z"/>
<path d="M2490 4080 c0 -19 3 -21 12 -12 9 9 9 15 0 24 -9 9 -12 7 -12 -12z"/>
<path d="M2307 4024 c-10 -11 -9 -52 3 -59 6 -3 13 1 16 10 8 19 -8 60 -19 49z"/>
<path d="M2514 4006 c-7 -20 2 -46 16 -46 13 0 13 47 0 55 -6 3 -13 -1 -16 -9z"/>
<path d="M2364 3930 c-47 -36 -58 -37 -71 -7 -10 20 -12 18 -26 -28 -8 -27
-13 -53 -10 -57 9 -16 32 -7 56 22 14 17 36 31 49 33 22 2 23 -1 20 -55 l-4
-58 37 0 c35 0 36 -1 33 -32 -3 -30 -6 -33 -33 -30 -17 1 -39 -3 -49 -11 -15
-11 -26 -10 -70 5 -28 11 -59 22 -68 25 -10 3 -18 10 -18 15 0 11 -41 47 -53
48 -5 0 -20 9 -34 20 -14 11 -30 17 -36 13 -5 -3 -15 1 -22 10 -10 14 -37 17
-155 19 -108 2 -144 0 -147 -9 -3 -7 -15 -13 -28 -13 -12 0 -28 -7 -35 -15 -7
-8 -20 -15 -30 -15 -10 0 -23 -7 -30 -15 -7 -9 -27 -22 -45 -31 -42 -19 -224
-207 -250 -256 -11 -21 -23 -38 -27 -38 -5 0 -8 -9 -8 -20 0 -11 -7 -23 -15
-26 -8 -4 -15 -17 -15 -30 0 -15 6 -24 15 -24 8 0 15 -9 15 -19 0 -11 5 -23
10 -26 6 -4 10 5 10 19 0 14 -4 26 -10 26 -15 0 -12 36 5 50 8 7 15 18 15 26
0 7 6 17 14 21 7 4 15 13 17 20 12 37 214 240 250 251 8 3 18 11 22 18 4 8 19
14 32 14 14 0 25 4 25 9 0 5 10 13 23 16 12 4 38 14 57 23 50 23 269 21 282
-2 5 -9 18 -16 29 -16 11 0 22 -7 25 -15 4 -8 10 -15 14 -15 5 0 24 -10 44
-22 29 -19 35 -29 36 -59 0 -46 8 -53 30 -27 17 21 18 22 45 4 20 -13 25 -23
21 -39 -2 -12 -1 -38 3 -57 l8 -35 7 32 c4 18 4 42 1 54 -8 26 13 43 32 27 10
-8 19 -6 34 7 17 17 24 17 54 6 19 -7 39 -10 44 -7 15 10 32 -21 26 -47 -4
-14 -2 -28 4 -31 7 -5 11 6 11 31 0 21 4 44 9 51 8 14 43 19 70 11 9 -2 17 8
22 28 7 22 22 39 54 57 25 15 45 31 45 36 0 6 9 10 20 10 10 0 23 7 28 16 13
23 232 24 282 2 19 -9 45 -19 58 -23 12 -3 22 -11 22 -16 0 -5 11 -9 25 -9 14
0 28 -7 31 -15 4 -8 12 -15 18 -15 25 0 256 -221 256 -245 0 -6 14 -25 30 -43
33 -37 38 -59 15 -76 -10 -8 -12 -15 -5 -26 8 -12 11 -11 16 8 4 13 12 21 18
19 18 -6 19 -37 1 -57 -11 -13 -13 -20 -5 -25 16 -10 50 30 50 59 0 13 -7 26
-15 30 -8 3 -15 15 -15 26 0 11 -4 20 -10 20 -5 0 -10 7 -10 15 0 8 -9 23 -20
32 -11 10 -20 23 -20 31 0 28 -206 233 -260 258 -19 9 -39 23 -43 30 -4 8 -15
14 -23 14 -9 0 -22 7 -30 15 -9 8 -26 15 -39 15 -13 0 -25 6 -28 13 -3 9 -40
12 -147 11 -121 -1 -144 -4 -152 -18 -5 -9 -20 -16 -33 -16 -14 0 -25 -4 -25
-9 0 -5 -8 -12 -19 -16 -10 -3 -34 -21 -53 -39 -20 -19 -55 -40 -79 -47 -24
-7 -50 -17 -57 -22 -17 -13 -24 -4 -33 45 -4 24 -12 63 -18 88 -15 70 18 88
62 34 36 -46 86 -43 61 4 -7 15 -14 35 -14 44 0 25 -18 31 -25 8 -9 -27 -23
-25 -69 10 -22 17 -47 30 -56 30 -9 0 -34 -13 -56 -30z"/>
<path d="M1973 3779 c-19 -20 -23 -20 -50 -7 -27 13 -34 13 -64 -1 -39 -18
-54 -66 -24 -77 12 -5 14 -14 10 -35 -6 -26 -4 -30 24 -35 16 -4 32 -12 35
-20 6 -16 32 -19 41 -4 3 6 -5 14 -20 20 -37 14 -43 39 -14 61 40 30 67 29
101 -1 33 -30 58 -30 58 0 0 11 5 22 10 25 16 10 12 55 -5 55 -8 0 -15 -9 -15
-20 0 -16 -7 -20 -30 -20 -25 0 -30 4 -30 24 0 16 7 26 21 29 12 3 18 10 14
16 -10 18 -39 13 -62 -10z m-57 -40 c8 -14 -4 -25 -38 -33 -21 -5 -28 -3 -28
8 0 27 52 47 66 25z"/>
<path d="M2805 3789 c-4 -6 3 -13 15 -16 32 -8 23 -47 -12 -51 -23 -3 -28 1
-28 17 0 12 -5 21 -10 21 -16 0 -24 -30 -11 -43 6 -6 11 -21 11 -34 0 -13 6
-23 15 -23 20 0 65 22 65 32 0 4 16 8 35 8 19 0 35 -4 35 -9 0 -5 9 -11 20
-14 18 -5 19 -8 9 -31 -7 -14 -20 -26 -31 -26 -10 0 -18 -7 -18 -15 0 -8 9
-15 20 -15 11 0 20 6 20 14 0 7 14 16 31 20 26 5 30 10 26 28 -4 13 0 29 9 39
25 27 14 62 -25 80 -29 14 -38 14 -60 3 -35 -18 -44 -18 -64 6 -18 22 -42 26
-52 9z m170 -52 c24 -18 11 -37 -20 -29 -13 4 -25 10 -25 15 0 4 0 12 0 17 0
14 23 12 45 -3z"/>
<path d="M1637 3702 c-24 -27 -22 -36 25 -87 48 -51 79 -58 96 -20 6 14 18 25
27 25 8 0 15 7 15 15 0 8 -6 15 -14 15 -7 0 -19 7 -26 15 -7 8 -19 15 -27 15
-8 0 -26 9 -40 20 -31 25 -36 25 -56 2z m102 -66 c-12 -10 -59 -15 -59 -6 0 5
14 10 32 10 17 0 29 -2 27 -4z"/>
<path d="M3147 3700 c-14 -11 -34 -20 -45 -20 -11 0 -22 -7 -26 -15 -3 -8 -12
-15 -21 -15 -8 0 -15 -7 -15 -15 0 -8 6 -15 13 -15 7 0 25 -15 41 -32 l28 -33
26 30 c22 26 23 30 9 33 -9 2 -17 8 -17 13 0 13 14 11 28 -3 9 -9 16 -7 32 7
25 22 26 53 3 71 -24 18 -26 17 -56 -6z"/>
<path d="M2150 3695 c-14 -17 -4 -55 16 -55 9 0 14 11 14 29 0 35 -13 47 -30
26z"/>
<path d="M2667 3693 c-4 -3 -7 -14 -7 -23 0 -10 -7 -23 -16 -30 -9 -9 -14 -26
-12 -47 4 -45 22 -47 26 -3 2 19 13 45 24 57 26 28 11 73 -15 46z"/>
<path d="M1977 3653 c-14 -13 -7 -33 11 -33 26 0 34 11 21 27 -13 14 -22 16
-32 6z"/>
<path d="M2843 3653 c-20 -7 -15 -33 6 -33 11 0 22 4 25 9 8 12 -16 29 -31 24z"/>
<path d="M2576 3625 c-11 -29 -7 -67 7 -63 15 6 21 43 9 64 -8 15 -10 15 -16
-1z"/>
<path d="M2117 3606 c-4 -9 -18 -14 -35 -14 -38 1 -60 -11 -41 -23 24 -15 65
-10 93 12 14 11 26 25 26 30 0 15 -37 10 -43 -5z"/>
<path d="M2180 3575 c0 -33 4 -45 13 -42 7 2 12 20 12 42 0 22 -5 40 -12 43
-9 2 -13 -10 -13 -43z"/>
<path d="M2245 3598 c-8 -31 2 -71 16 -63 12 8 11 56 0 74 -8 12 -11 9 -16
-11z"/>
<path d="M2366 3613 c-3 -3 -6 -27 -6 -53 0 -25 -5 -51 -12 -58 -6 -6 -14 -30
-17 -52 -8 -54 -25 -55 -32 -3 -7 57 -16 63 -25 17 -3 -22 -11 -44 -16 -51
-15 -19 -2 -30 44 -35 25 -3 54 -15 69 -28 24 -21 25 -27 17 -64 -10 -45 -2
-142 13 -151 5 -4 9 36 9 98 0 83 3 106 15 110 8 4 17 2 21 -4 3 -5 4 -72 3
-149 -2 -77 0 -143 4 -146 9 -10 97 34 97 48 0 6 6 6 15 -2 20 -16 45 -6 45
19 0 19 2 19 26 -4 30 -28 64 -33 64 -10 0 8 -13 24 -30 37 -16 12 -30 25 -30
30 0 20 33 4 76 -36 32 -31 59 -47 85 -51 22 -4 41 -11 45 -16 3 -5 16 -9 30
-9 14 0 27 -7 30 -15 4 -8 15 -15 26 -15 26 0 58 -40 52 -65 -6 -30 -8 -29
141 -130 33 -23 76 -56 95 -73 19 -18 40 -32 47 -32 7 0 13 -4 13 -9 0 -5 26
-26 58 -47 31 -21 65 -47 75 -56 10 -10 29 -26 43 -35 25 -16 26 -15 75 33 51
50 60 71 34 79 -27 9 -40 15 -70 35 -16 10 -52 31 -80 45 -27 14 -63 35 -80
45 -16 11 -39 24 -50 30 -11 6 -42 24 -70 41 -27 16 -61 35 -75 42 -14 6 -31
17 -38 24 -7 7 -18 13 -23 13 -5 0 -28 14 -51 30 -22 17 -47 30 -53 30 -7 0
-15 7 -19 15 -3 8 -14 15 -25 15 -10 0 -21 7 -25 15 -3 8 -14 15 -25 15 -11 0
-22 4 -25 9 -4 5 -27 20 -54 32 -63 31 -113 65 -105 73 12 12 51 6 57 -9 3 -8
11 -15 18 -15 7 0 56 -21 108 -46 52 -26 151 -73 220 -106 69 -33 132 -64 140
-69 8 -5 22 -12 30 -15 8 -3 22 -10 30 -15 8 -5 22 -12 30 -15 8 -3 22 -10 30
-15 8 -5 22 -12 30 -15 8 -3 41 -19 73 -35 31 -16 63 -29 71 -29 7 0 19 -7 26
-15 7 -8 20 -15 30 -15 10 0 23 -7 30 -15 17 -20 53 -19 73 3 22 24 21 28 -3
52 -11 11 -20 27 -20 35 0 8 -4 15 -9 15 -5 0 -11 9 -14 19 -3 13 -20 24 -48
32 -24 7 -53 19 -64 26 -11 7 -31 13 -45 13 -14 0 -34 7 -44 15 -11 8 -29 15
-41 15 -12 0 -30 7 -41 15 -10 8 -29 15 -41 15 -12 0 -34 6 -50 14 -30 15 -80
33 -128 46 -34 9 -87 28 -130 45 -45 19 -96 36 -134 45 -18 5 -38 13 -44 19
-6 6 -22 11 -36 11 -15 0 -35 7 -45 15 -11 8 -32 15 -48 15 -18 0 -28 5 -28
15 0 20 89 21 116 0 10 -8 35 -15 54 -15 19 0 46 -7 60 -15 14 -8 39 -15 55
-15 17 0 41 -7 55 -15 14 -8 37 -14 51 -15 15 0 43 -7 62 -15 20 -8 47 -15 61
-15 13 0 37 -7 52 -15 16 -8 43 -15 59 -15 17 0 36 -5 41 -10 6 -6 33 -15 60
-20 27 -5 70 -16 97 -25 37 -14 50 -15 62 -5 12 10 11 17 -10 48 -14 20 -25
45 -25 54 0 12 -8 18 -25 18 -13 0 -50 7 -82 15 -31 8 -79 15 -105 15 -26 0
-73 7 -105 15 -31 8 -78 15 -103 15 -25 0 -70 7 -100 15 -30 8 -75 15 -100 15
-25 0 -61 5 -80 11 -19 6 -57 14 -85 18 -27 3 -50 11 -50 16 0 17 152 17 280
0 67 -8 165 -15 218 -15 54 0 130 -7 169 -16 107 -24 107 -15 3 104 -2 2 -86
-4 -187 -13 -193 -17 -448 -17 -448 0 0 6 27 13 60 17 33 4 65 10 70 13 6 4
68 11 138 16 214 16 256 22 259 39 2 10 -16 23 -48 38 -45 20 -57 22 -107 14
-31 -6 -70 -14 -87 -20 -87 -29 -135 -42 -157 -42 -13 0 -33 -7 -44 -15 -10
-8 -32 -15 -49 -15 -16 0 -49 -7 -73 -17 -42 -16 -43 -17 -37 -52 3 -20 8 -44
11 -54 4 -12 0 -20 -13 -24 -10 -2 -27 -24 -39 -46 -21 -43 -98 -111 -118
-104 -7 2 -12 48 -14 129 -3 140 -4 138 76 138 20 0 35 6 38 15 4 8 17 15 30
15 12 0 27 6 31 14 4 8 28 16 53 18 25 3 76 17 114 32 38 14 78 26 90 26 12 0
28 4 36 10 55 35 -108 31 -181 -5 -66 -31 -77 -31 -81 0 -2 14 -7 24 -13 23
-10 -3 -12 -13 -14 -66 -1 -33 -36 -25 -37 8 -1 44 -4 51 -15 44 -6 -3 -9 -18
-6 -32 6 -32 -10 -79 -23 -66 -5 5 -10 32 -12 59 -4 66 -22 60 -28 -10 -6 -65
-24 -78 -28 -20 -7 123 -32 138 -32 20 0 -74 -10 -96 -34 -76 -10 8 -22 8 -41
1 -15 -6 -30 -8 -33 -5 -13 12 -14 117 -2 125 15 9 26 95 13 103 -6 4 -13 4
-17 0z"/>
<path d="M2690 3606 c0 -33 98 -63 115 -35 10 15 1 21 -39 22 -19 0 -38 7 -40
14 -7 17 -36 17 -36 -1z"/>
<path d="M1467 3549 c-37 -36 -67 -72 -67 -81 0 -9 -7 -18 -15 -22 -8 -3 -15
-12 -15 -21 0 -8 -7 -15 -15 -15 -8 0 -15 -7 -15 -15 0 -8 3 -15 8 -15 10 0
52 46 52 57 0 13 77 93 114 119 18 13 27 27 24 39 -3 16 -15 8 -71 -46z"/>
<path d="M3300 3591 c0 -10 12 -27 28 -37 15 -10 50 -42 79 -71 29 -29 55 -53
58 -53 12 0 4 31 -10 36 -8 4 -15 10 -15 15 0 11 -91 100 -119 117 -18 11 -21
10 -21 -7z"/>
<path d="M1813 3568 c-36 -17 -27 -28 22 -28 32 0 45 4 45 14 0 8 -7 17 -16
20 -20 8 -24 7 -51 -6z"/>
<path d="M2970 3556 c0 -12 11 -16 41 -16 52 0 48 24 -4 28 -28 2 -37 -1 -37
-12z"/>
<path d="M1560 3550 c0 -6 -7 -13 -16 -17 -18 -7 -84 -70 -84 -80 0 -3 -8 -12
-17 -19 -10 -7 -14 -16 -10 -21 5 -4 14 0 21 10 7 9 16 17 19 17 4 0 26 20 51
44 24 24 52 46 61 48 30 5 30 28 1 28 -14 0 -26 -5 -26 -10z"/>
<path d="M3237 3554 c-9 -10 2 -24 19 -24 7 0 36 -21 63 -47 92 -89 112 -105
119 -98 4 3 -1 12 -11 19 -9 7 -17 16 -17 19 0 9 -100 107 -109 107 -5 0 -11
7 -15 15 -5 15 -37 21 -49 9z"/>
<path d="M1907 3533 c-30 -8 -13 -28 29 -34 39 -7 81 -20 142 -45 18 -8 48
-14 67 -14 32 0 35 3 35 28 0 37 -10 46 -26 25 -10 -15 -16 -16 -40 -4 -73 33
-92 40 -139 44 -27 3 -58 3 -68 0z"/>
<path d="M1658 3504 c-10 -3 -18 -9 -18 -14 0 -4 -13 -13 -30 -19 -35 -12 -39
-29 -7 -35 52 -10 208 -26 254 -26 28 0 75 -5 104 -11 30 -7 76 -14 102 -18
26 -3 49 -10 50 -16 4 -17 -276 -17 -450 0 -90 9 -169 12 -176 8 -22 -13 -87
-89 -87 -102 0 -14 25 -14 70 0 19 5 108 14 196 19 89 5 197 14 240 20 92 13
250 10 247 -5 -1 -5 -24 -13 -50 -16 -26 -4 -73 -11 -103 -17 -100 -20 -194
-34 -282 -42 -48 -5 -96 -13 -107 -19 -11 -6 -43 -11 -71 -11 -51 0 -180 -24
-209 -39 -8 -4 -18 -20 -22 -35 -4 -15 -16 -34 -25 -41 -11 -7 -15 -19 -11
-29 5 -14 14 -16 44 -10 21 4 50 13 65 20 15 8 40 14 55 14 15 0 41 7 57 15
15 8 40 15 55 15 14 1 37 7 51 15 14 8 39 14 55 15 17 0 43 7 59 15 15 8 38
15 50 15 11 0 41 6 66 14 25 8 68 21 96 30 29 9 63 16 76 16 13 0 33 7 44 15
27 20 124 20 124 0 0 -10 -10 -15 -34 -15 -18 0 -39 -7 -46 -15 -7 -8 -24 -15
-37 -15 -14 0 -37 -6 -51 -14 -30 -15 -81 -33 -127 -46 -48 -13 -98 -31 -128
-46 -16 -8 -36 -14 -45 -14 -9 0 -30 -7 -46 -15 -15 -8 -36 -15 -45 -15 -10 0
-26 -7 -37 -15 -10 -8 -30 -15 -44 -15 -14 0 -34 -7 -44 -15 -11 -8 -29 -15
-41 -15 -12 0 -30 -7 -41 -15 -10 -8 -31 -15 -45 -15 -14 0 -34 -7 -45 -15
-10 -8 -28 -15 -39 -15 -31 -2 -80 -34 -84 -56 -1 -10 -9 -26 -16 -34 -33 -39
-25 -90 14 -90 14 0 298 134 341 161 8 5 22 12 30 15 8 3 22 9 30 14 8 5 35
19 60 30 25 12 86 41 135 65 50 23 97 46 105 49 8 3 23 10 33 16 9 5 25 15 35
20 9 6 24 13 32 16 8 3 29 12 45 19 17 8 37 16 45 19 8 3 23 11 32 18 13 9 20
10 29 1 8 -8 -5 -20 -49 -47 -33 -20 -66 -36 -75 -36 -8 0 -17 -7 -21 -15 -3
-8 -15 -15 -26 -15 -11 0 -23 -7 -26 -15 -4 -8 -14 -15 -24 -15 -10 0 -23 -7
-30 -15 -7 -8 -17 -15 -22 -15 -8 0 -64 -36 -78 -50 -3 -3 -21 -13 -40 -24
-63 -33 -104 -57 -135 -77 -16 -10 -39 -23 -50 -29 -11 -6 -33 -19 -50 -30
-16 -11 -41 -25 -55 -30 -13 -6 -27 -14 -30 -18 -3 -4 -26 -17 -52 -30 -26
-13 -50 -27 -53 -33 -4 -5 -15 -9 -26 -9 -32 0 -22 -38 22 -85 28 -29 47 -41
58 -37 17 6 249 179 266 198 6 6 27 21 48 33 20 13 37 26 37 29 0 4 34 29 75
57 71 47 87 66 66 79 -5 4 -4 17 2 31 8 17 20 25 38 25 15 0 29 7 33 15 3 8
16 15 30 15 14 0 27 4 30 9 4 5 24 12 46 16 22 4 40 10 40 14 0 9 97 81 110
81 18 0 11 -15 -20 -40 -16 -14 -30 -30 -30 -37 0 -19 30 -16 53 4 18 17 19
17 33 -2 12 -16 18 -17 33 -8 15 10 22 9 31 -2 7 -8 18 -15 25 -15 7 0 18 -7
25 -15 15 -19 70 -20 70 -2 0 7 -6 25 -12 40 -11 22 -20 27 -50 27 -28 0 -46
9 -77 37 -23 20 -41 40 -41 45 0 5 -12 25 -27 45 -27 36 -32 77 -12 98 5 5 9
13 9 17 0 14 -88 48 -123 48 -18 1 -43 7 -57 15 -14 8 -38 15 -55 15 -16 0
-41 7 -55 15 -14 8 -38 14 -53 15 -15 0 -40 6 -55 14 -29 15 -127 27 -154 20z"/>
<path d="M2209 3454 c-18 -36 -15 -44 13 -44 19 0 23 29 10 61 -6 13 -11 9
-23 -17z"/>
<path d="M3475 3410 c-7 -12 2 -30 16 -30 12 0 12 27 0 35 -5 3 -12 1 -16 -5z"/>
<path d="M1250 3332 c0 -26 25 -62 43 -62 11 0 8 34 -5 63 -17 35 -38 35 -38
-1z"/>
<path d="M3582 3290 c-16 -26 -15 -57 2 -63 7 -3 17 -20 20 -39 18 -89 18 -99
1 -118 -16 -18 -17 -22 -3 -37 8 -10 18 -29 21 -43 4 -14 15 -35 26 -47 11
-12 23 -33 26 -46 4 -14 13 -28 21 -31 8 -3 14 -15 14 -26 0 -11 7 -20 15 -20
8 0 15 -6 15 -13 0 -7 20 -30 45 -51 25 -22 45 -45 45 -52 0 -8 7 -14 15 -14
8 0 15 6 15 13 0 8 10 18 22 24 l22 10 -28 26 c-15 14 -25 31 -21 36 12 20 32
11 51 -24 20 -38 44 -46 44 -15 0 11 -6 20 -14 20 -19 0 -27 36 -19 98 5 44 3
52 -11 52 -9 0 -16 7 -16 15 0 20 19 19 42 -2 63 -58 68 -65 58 -84 -18 -33
-11 -59 20 -77 16 -9 30 -24 30 -32 0 -14 41 -60 54 -60 10 0 7 39 -4 60 -7
13 -7 21 0 25 11 7 14 68 4 78 -10 10 -44 -12 -44 -28 0 -8 5 -15 10 -15 6 0
10 -9 10 -20 0 -11 -7 -20 -15 -20 -8 0 -15 9 -15 20 0 11 -7 20 -15 20 -24 0
-17 36 10 48 14 6 25 18 25 26 0 15 -62 68 -92 79 -10 4 -18 11 -18 17 0 17
-46 11 -74 -11 -31 -25 -33 -36 -5 -44 15 -5 18 -10 11 -17 -8 -8 -19 -6 -37
6 -43 28 -54 16 -41 -42 6 -27 17 -56 24 -65 9 -11 10 -17 2 -22 -16 -10 -90
42 -90 63 0 9 -7 26 -15 36 -8 11 -15 29 -15 40 0 12 -7 30 -15 40 -8 11 -15
40 -15 65 0 25 -7 59 -15 75 -8 15 -15 48 -15 72 0 27 -5 46 -14 51 -8 4 -16
23 -18 42 -4 41 -18 49 -36 21z m307 -423 c15 -19 4 -27 -36 -27 -38 0 -44 16
-10 30 30 12 33 12 46 -3z"/>
<path d="M1220 3251 c0 -22 -6 -44 -15 -51 -11 -9 -15 -32 -15 -79 -1 -42 -6
-73 -15 -85 -8 -11 -15 -36 -15 -57 0 -20 -7 -42 -15 -49 -8 -7 -15 -23 -15
-35 0 -12 -7 -28 -15 -35 -8 -7 -15 -20 -15 -29 -1 -17 -59 -51 -88 -51 -10 0
-27 -6 -37 -14 -18 -13 -18 -15 -2 -40 10 -14 22 -26 29 -26 11 0 120 108 132
132 4 7 18 31 31 53 80 132 87 151 70 191 -13 32 -2 97 21 125 17 19 18 43 4
70 -19 34 -40 23 -40 -20z"/>
<path d="M3502 3248 c6 -18 28 -21 28 -4 0 9 -7 16 -16 16 -9 0 -14 -5 -12
-12z"/>
<path d="M836 3037 c-20 -10 -56 -41 -81 -69 -35 -39 -45 -58 -45 -84 0 -24 5
-34 15 -34 10 0 15 10 15 30 0 20 12 41 38 70 22 22 44 40 49 40 6 0 13 7 17
15 4 11 22 15 70 15 55 0 67 -3 87 -25 29 -29 39 -31 39 -7 0 56 -131 87 -204
49z"/>
<path d="M3834 3020 c-32 -33 -44 -60 -26 -60 4 0 20 14 36 30 26 27 36 30 88
30 42 0 63 -5 76 -17 10 -10 34 -32 54 -48 19 -17 38 -43 42 -58 3 -15 11 -27
16 -27 6 0 10 -40 10 -95 0 -58 -4 -95 -10 -95 -6 0 -15 -12 -21 -26 -9 -26
-10 -26 -29 -9 -24 22 -39 12 -22 -15 10 -16 10 -20 -1 -20 -7 0 -29 -12 -48
-26 -25 -18 -42 -24 -64 -21 -23 4 -36 -1 -53 -18 -14 -14 -19 -26 -12 -30 5
-3 13 1 16 9 9 23 51 20 57 -4 8 -29 29 -24 52 13 12 19 30 33 45 36 32 4 101
76 94 96 -4 9 0 15 10 15 14 0 16 14 16 95 0 78 -3 95 -15 95 -10 0 -15 10
-15 29 0 16 -7 34 -15 41 -8 7 -15 18 -15 25 0 7 -25 30 -56 50 -47 31 -64 37
-116 39 -58 2 -62 0 -94 -34z"/>
<path d="M872 2962 c-98 -79 -99 -81 -78 -97 32 -25 54 -18 70 20 19 46 56 50
56 6 0 -16 7 -34 15 -41 8 -7 15 -19 15 -26 0 -19 44 -28 69 -15 33 18 16 37
-31 33 -40 -4 -41 -4 -34 23 9 34 -1 65 -20 65 -16 0 -19 16 -4 25 17 10 61
-37 48 -52 -13 -16 -4 -30 26 -35 30 -6 66 27 66 60 0 31 -15 35 -28 7 -14
-30 -32 -33 -32 -5 0 11 -8 24 -17 27 -10 4 -22 12 -26 20 -13 21 -60 14 -95
-15z"/>
<path d="M2057 2984 c-18 -18 15 -24 129 -24 96 0 125 3 122 13 -5 13 -238 24
-251 11z"/>
<path d="M2557 2983 c-19 -18 4 -23 117 -23 115 0 159 9 120 24 -21 8 -229 8
-237 -1z"/>
<path d="M1979 2939 c-18 -34 4 -44 35 -16 32 30 33 37 1 37 -14 0 -29 -8 -36
-21z"/>
<path d="M2320 2946 c0 -7 9 -16 20 -19 20 -5 20 -12 18 -213 l-3 -208 -87 0
c-115 -1 -121 -20 -8 -24 47 -2 89 -7 94 -12 6 -6 15 -5 23 1 10 9 13 61 13
230 0 193 -2 221 -17 239 -20 23 -53 27 -53 6z"/>
<path d="M2486 2953 c-3 -4 -6 -116 -6 -250 1 -207 3 -243 16 -243 8 0 17 6
20 13 3 9 22 12 69 9 73 -5 119 3 109 19 -4 6 -39 9 -90 8 -46 -2 -86 0 -89 3
-4 3 -6 95 -5 204 0 159 4 201 15 214 8 9 15 20 15 23 0 9 -45 9 -54 0z"/>
<path d="M2825 2943 c5 -10 10 -33 13 -51 6 -48 26 -34 30 21 3 45 2 47 -24
47 -21 0 -25 -3 -19 -17z"/>
<path d="M2430 2745 c0 -115 2 -206 5 -203 7 7 7 399 0 406 -3 3 -5 -88 -5
-203z"/>
<path d="M2000 2855 c0 -19 6 -37 14 -42 8 -4 16 -26 18 -47 2 -22 9 -41 16
-44 19 -6 16 77 -3 84 -10 4 -15 20 -15 45 0 28 -4 39 -15 39 -10 0 -15 -11
-15 -35z"/>
<path d="M1829 2824 c-35 -32 -66 -60 -69 -63 -9 -10 -83 -74 -134 -116 -27
-22 -72 -60 -99 -85 -27 -25 -55 -49 -63 -53 -24 -14 -16 -36 31 -85 l46 -47
37 40 c20 23 69 76 107 119 39 44 88 98 110 120 22 23 62 64 88 92 45 49 47
52 36 85 -7 19 -15 38 -19 42 -5 5 -37 -17 -71 -49z"/>
<path d="M2942 2858 c-7 -7 -12 -26 -12 -42 0 -24 15 -46 68 -102 142 -149
287 -307 290 -315 2 -5 12 -9 21 -9 21 0 101 73 101 93 0 7 -21 28 -46 46 -25
18 -56 43 -69 55 -13 11 -49 44 -82 72 -186 162 -223 196 -223 205 0 13 -34
11 -48 -3z"/>
<path d="M755 2837 c-13 -11 -16 -21 -11 -43 4 -16 8 -38 9 -49 3 -31 44 -32
58 -1 7 14 20 28 31 31 30 10 22 37 -9 33 -20 -2 -29 -9 -31 -25 -2 -13 -10
-23 -18 -23 -19 0 -18 39 1 46 18 7 20 44 2 44 -7 0 -21 -6 -32 -13z"/>
<path d="M2817 2843 c-10 -10 -8 -93 2 -93 13 0 21 26 21 66 0 32 -8 42 -23
27z"/>
<path d="M685 2828 c-9 -24 -1 -113 10 -111 14 4 19 103 6 116 -7 7 -12 5 -16
-5z"/>
<path d="M890 2765 c0 -8 2 -15 4 -15 2 0 11 -3 20 -6 12 -4 16 0 16 15 0 14
-6 21 -20 21 -11 0 -20 -7 -20 -15z"/>
<path d="M3720 2744 c0 -7 -97 -110 -215 -230 -119 -121 -302 -309 -408 -418
-106 -110 -257 -265 -337 -346 -80 -80 -155 -157 -168 -172 -22 -24 -23 -35
-26 -177 -2 -127 -5 -154 -19 -168 -16 -16 -19 -16 -42 7 l-24 25 -2 293 c-1
161 1 295 4 298 13 13 56 -7 63 -29 4 -12 8 -62 8 -112 1 -83 3 -90 21 -90 18
0 20 8 23 93 2 61 -2 109 -13 144 -8 28 -15 84 -15 124 0 40 -7 108 -15 151
-8 43 -15 117 -15 166 l0 87 -27 0 c-16 0 -37 -7 -47 -15 -11 -8 -29 -15 -41
-15 -12 0 -30 7 -41 15 -34 25 -54 19 -54 -17 0 -18 -7 -69 -15 -113 -8 -44
-14 -119 -15 -167 0 -48 -5 -99 -10 -114 -6 -15 -17 -88 -24 -163 -14 -139 -9
-181 21 -181 10 0 13 22 13 96 0 52 5 104 10 115 12 21 64 51 74 42 3 -4 6
-140 6 -304 l0 -298 -25 -26 c-56 -55 -65 -34 -65 160 l0 140 -58 64 c-31 35
-77 83 -102 105 -24 23 -74 72 -110 110 -102 108 -705 718 -804 815 -36 36
-66 68 -66 73 0 4 -7 8 -15 8 -8 0 -15 5 -15 10 0 25 -18 6 -23 -24 -5 -33
-37 -76 -56 -76 -5 0 -14 -7 -21 -15 -7 -8 -21 -15 -31 -15 -11 0 -19 -7 -19
-15 0 -8 4 -15 8 -15 11 0 69 -58 172 -169 47 -51 112 -121 145 -155 33 -34
101 -105 150 -159 50 -54 166 -175 258 -270 93 -95 246 -251 340 -347 95 -97
183 -192 197 -213 14 -20 31 -37 38 -37 6 0 12 -4 12 -8 0 -9 127 -142 135
-142 7 0 104 100 150 155 67 79 127 146 195 216 36 37 88 91 117 120 28 30 74
75 102 101 28 26 51 49 51 52 0 3 15 20 33 38 17 19 77 83 132 142 55 60 143
153 195 207 52 54 115 120 140 146 185 202 249 270 278 296 38 36 39 45 8 75
-16 14 -22 29 -19 42 4 16 0 20 -21 20 -14 0 -26 4 -26 8 0 5 -11 22 -25 38
-14 16 -25 24 -25 18z m-2423 -216 c33 -32 44 -73 21 -81 -8 -2 -9 -8 -4 -13
5 -5 11 -4 13 4 12 33 103 -19 103 -59 0 -23 -13 -25 -30 -4 -19 23 -33 18
-26 -9 7 -30 -12 -45 -29 -23 -7 10 -17 17 -24 17 -16 0 -13 -30 4 -36 17 -7
21 -44 5 -44 -6 0 -27 15 -46 34 -37 36 -37 49 -2 74 22 16 24 44 3 35 -9 -3
-24 2 -35 12 -14 13 -28 16 -55 11 -28 -6 -35 -4 -35 9 0 14 86 105 99 105 3
0 20 -14 38 -32z m2241 -92 c2 -10 -6 -27 -17 -37 -12 -11 -21 -24 -21 -29 0
-15 -12 -12 -40 10 l-25 19 34 31 c36 33 64 36 69 6z m-2051 -108 c40 -38 44
-78 11 -93 -13 -6 -27 -20 -33 -32 -10 -23 -39 -31 -50 -13 -3 5 -1 19 5 31 6
11 9 28 6 36 -6 14 -8 14 -24 -1 -22 -19 -38 -21 -48 -5 -5 9 81 108 96 109 2
0 19 -14 37 -32z m1981 -9 c23 -22 42 -42 42 -44 0 -14 -14 -35 -24 -35 -16 0
-106 90 -106 106 0 27 46 13 88 -27z m-1014 -5 c3 -9 6 -92 6 -185 0 -142 -2
-171 -15 -175 -8 -4 -22 -1 -30 6 -12 10 -15 44 -15 179 0 166 5 191 36 191 6
0 15 -7 18 -16z m938 -71 c26 -26 48 -51 48 -55 0 -17 -40 -29 -61 -17 -27 14
-46 -2 -24 -21 19 -16 20 -50 0 -50 -8 0 -35 20 -61 44 -36 35 -44 49 -39 65
7 23 34 28 52 10 7 -7 20 -8 30 -5 17 7 17 8 1 20 -20 15 -24 56 -6 56 7 0 34
-21 60 -47z m-1789 -34 c36 -30 48 -61 27 -74 -6 -3 -22 7 -38 23 -21 23 -32
28 -48 22 -24 -9 -36 -41 -23 -61 8 -12 12 -11 23 4 17 21 32 22 44 1 13 -23
-8 -64 -33 -64 -20 1 -65 32 -65 45 0 3 -7 13 -15 21 -8 9 -15 19 -15 23 0 14
77 91 91 91 8 0 31 -14 52 -31z m1655 -100 c44 -42 55 -79 25 -79 -17 0 -113
85 -113 100 0 3 3 10 7 13 15 15 40 5 81 -34z m-1584 15 c25 -9 19 -27 -19
-63 -19 -18 -35 -39 -35 -47 0 -24 37 -15 63 16 26 31 67 41 67 17 0 -21 -79
-87 -103 -87 -28 0 -67 38 -67 66 0 12 17 40 38 63 43 47 36 42 56 35z m1474
-86 c7 -29 13 -33 45 -36 32 -3 37 -7 37 -29 0 -24 -2 -25 -40 -19 -43 7 -46
5 -28 -23 11 -18 6 -51 -9 -51 -4 0 -29 20 -55 45 -54 49 -63 80 -23 73 24 -5
29 1 26 30 -2 15 17 42 30 42 5 0 12 -15 17 -32z m-1298 -105 c0 -14 -6 -23
-15 -23 -8 0 -32 -19 -54 -41 l-40 -42 -6 26 c-4 14 -4 30 -1 36 9 13 -14 26
-41 22 -13 -1 -23 1 -23 6 1 13 37 53 49 53 6 0 11 5 11 11 0 6 10 19 23 29
22 19 22 18 59 -18 21 -20 37 -47 38 -59z m1241 -78 c12 -14 14 -24 7 -32 -17
-20 -30 -15 -75 28 -42 39 -55 73 -30 82 11 4 61 -35 98 -78z m-1191 42 c0 -7
-18 -30 -40 -52 -21 -21 -37 -42 -34 -47 11 -17 41 -7 69 22 29 30 58 39 70
20 6 -10 -58 -80 -74 -80 -5 0 -11 -7 -15 -15 -8 -21 -20 -19 -55 11 -40 34
-40 69 -1 108 17 16 30 33 30 38 0 4 11 8 25 8 14 0 25 -6 25 -13z m1058 -69
c-2 -13 -15 -29 -31 -36 -26 -13 -27 -15 -14 -35 20 -31 59 -29 67 3 3 14 14
26 23 28 13 3 17 -4 17 -31 0 -27 -7 -41 -31 -61 -40 -34 -50 -33 -93 8 -46
42 -48 84 -9 121 36 33 76 34 71 3z m-930 -64 c11 -20 4 -60 -14 -75 -8 -6
-14 -22 -14 -35 0 -14 -8 -25 -20 -29 -28 -9 -40 2 -40 35 0 24 -5 29 -27 32
-48 5 -38 31 24 60 68 32 79 33 91 12z m821 -58 c11 -21 10 -26 -14 -50 -28
-29 -45 -32 -63 -14 -19 19 -14 41 16 65 35 29 46 28 61 -1z m-739 -21 c12
-15 10 -26 -12 -57 -17 -24 -2 -35 20 -15 25 23 52 22 52 -2 0 -28 -85 -100
-110 -94 -22 6 -25 24 -9 55 8 14 8 23 0 31 -7 7 -12 5 -17 -6 -7 -19 -22 -21
-44 -7 -12 7 -5 18 35 59 54 54 66 59 85 36z m365 -466 c14 -17 24 -37 22 -43
-2 -6 -27 -11 -58 -11 -62 0 -73 15 -39 58 28 35 42 34 75 -4z"/>
<path d="M1252 2494 c4 -21 22 -23 26 -1 2 10 -3 17 -13 17 -10 0 -15 -6 -13
-16z"/>
<path d="M1440 2285 c0 -11 7 -15 23 -13 12 2 22 8 22 13 0 6 -10 11 -22 13
-16 2 -23 -2 -23 -13z"/>
<path d="M1760 1955 c0 -10 7 -15 18 -13 21 4 19 22 -2 26 -10 2 -16 -3 -16
-13z"/>
<path d="M927 2733 c-13 -12 -7 -44 8 -49 9 -4 15 -19 15 -35 0 -33 0 -33 34
-18 l25 12 -30 26 c-16 14 -29 36 -29 48 0 23 -10 30 -23 16z"/>
<path d="M2780 2699 c0 -52 24 -48 28 4 2 28 -1 37 -12 37 -12 0 -16 -11 -16
-41z"/>
<path d="M3910 2720 c-12 -7 -12 -12 -2 -22 9 -9 15 -9 24 0 16 16 -2 34 -22
22z"/>
<path d="M820 2706 c0 -20 49 -76 66 -76 8 0 14 -4 14 -10 0 -5 10 -10 23 -9
21 0 21 1 2 9 -11 4 -31 29 -45 54 -24 44 -60 64 -60 32z"/>
<path d="M1922 2708 c-7 -7 -12 -17 -12 -23 0 -6 -13 -24 -28 -41 -15 -16 -50
-58 -77 -94 -27 -36 -54 -69 -60 -75 -7 -5 -27 -30 -45 -55 -18 -25 -47 -59
-63 -77 l-30 -32 43 -48 c24 -26 49 -51 56 -55 13 -8 41 28 84 107 15 28 29
50 75 120 56 84 64 98 71 118 3 9 10 17 15 17 18 0 30 55 24 102 -7 50 -26 63
-53 36z"/>
<path d="M2886 2688 c-20 -39 -21 -84 -1 -92 8 -3 15 -10 15 -17 0 -6 13 -28
28 -48 16 -20 32 -43 35 -51 4 -8 16 -28 27 -45 11 -16 23 -37 27 -45 4 -8 26
-43 49 -77 23 -34 44 -70 46 -80 4 -22 58 -32 58 -11 1 7 14 24 30 38 17 13
30 33 30 45 -1 11 -21 45 -46 75 -24 30 -65 82 -91 115 -26 33 -58 72 -73 87
-14 15 -41 52 -60 82 -19 30 -40 55 -47 56 -6 0 -19 -14 -27 -32z"/>
<path d="M3980 2696 c-5 -13 -14 -27 -19 -31 -14 -8 -14 -35 0 -35 11 0 79 70
79 83 0 4 -11 7 -25 7 -18 0 -28 -7 -35 -24z"/>
<path d="M2064 2696 c-9 -23 0 -69 14 -74 8 -2 12 9 12 37 0 41 -16 64 -26 37z"/>
<path d="M710 2676 c0 -13 7 -29 15 -36 8 -7 15 -19 15 -26 0 -8 6 -14 14 -14
7 0 19 -7 26 -15 7 -8 22 -15 34 -15 13 0 32 -13 44 -30 24 -32 56 -40 66 -15
3 8 12 15 21 15 8 0 15 5 15 10 0 16 -30 24 -41 13 -11 -11 -63 9 -75 28 -3 5
-28 21 -55 34 -39 20 -49 30 -49 50 0 16 -6 25 -15 25 -9 0 -15 -9 -15 -24z"/>
<path d="M770 2675 c0 -8 7 -15 15 -15 8 0 15 7 15 15 0 8 -7 15 -15 15 -8 0
-15 -7 -15 -15z"/>
<path d="M3860 2661 c-14 -27 -13 -31 10 -31 11 0 20 4 20 9 0 5 3 16 6 25 9
23 -23 20 -36 -3z"/>
<path d="M2750 2599 c0 -52 24 -48 28 4 2 28 -1 37 -12 37 -12 0 -16 -11 -16
-41z"/>
<path d="M2092 2574 c2 -20 9 -39 16 -42 10 -3 12 6 10 34 -2 20 -9 39 -16 42
-10 3 -12 -6 -10 -34z"/>
<path d="M2718 2516 c-6 -15 -8 -29 -5 -32 12 -12 37 5 37 25 0 31 -19 35 -32
7z"/>
<path d="M1989 2483 c-49 -110 -61 -133 -70 -139 -5 -3 -9 -12 -9 -20 0 -9 -7
-22 -15 -30 -8 -9 -15 -24 -15 -35 0 -10 -4 -19 -9 -19 -5 0 -13 -10 -17 -22
-3 -13 -12 -30 -19 -38 -7 -8 -15 -28 -19 -45 -5 -25 1 -37 34 -73 22 -24 40
-48 40 -54 0 -5 10 -8 23 -6 17 2 23 10 25 40 2 20 10 42 18 48 8 7 14 22 14
34 0 12 7 31 15 42 8 10 15 28 15 40 0 11 7 29 15 40 8 10 15 28 15 39 0 11 7
29 15 39 8 11 15 39 15 64 0 48 -27 142 -41 142 -5 0 -19 -21 -30 -47z"/>
<path d="M2122 2498 c2 -12 9 -23 15 -26 19 -6 29 28 12 39 -23 14 -31 10 -27
-13z"/>
<path d="M2817 2513 c-4 -3 -7 -20 -7 -37 0 -18 -7 -42 -17 -55 -17 -26 -18
-22 33 -124 8 -16 14 -36 14 -46 0 -9 7 -26 15 -37 8 -10 15 -29 15 -40 0 -12
7 -27 15 -34 8 -7 15 -24 15 -39 0 -14 7 -35 15 -45 8 -11 15 -28 15 -38 0
-23 26 -23 39 0 5 9 25 33 45 52 38 38 44 61 21 80 -8 7 -15 20 -15 30 0 10
-7 23 -15 30 -8 7 -15 20 -15 30 0 10 -6 23 -14 29 -8 7 -17 23 -20 36 -4 14
-11 25 -16 25 -6 0 -10 8 -10 19 0 10 -7 24 -15 31 -8 7 -15 20 -15 29 0 9 -7
25 -15 35 -8 11 -15 28 -15 38 0 9 -9 22 -19 28 -23 12 -26 12 -34 3z"/>
<path d="M2195 2401 c-34 -5 -40 -10 -45 -36 -4 -16 -12 -40 -18 -52 -7 -12
-12 -33 -12 -46 0 -14 -7 -38 -15 -53 -8 -16 -15 -40 -15 -54 -1 -14 -7 -36
-15 -50 -8 -14 -14 -38 -15 -53 0 -15 -6 -38 -14 -50 -8 -12 -17 -43 -20 -68
-7 -45 -6 -48 44 -100 27 -29 50 -59 50 -67 0 -7 8 -12 18 -10 18 3 25 32 41
163 4 39 13 83 19 98 7 16 12 47 12 70 0 23 7 64 15 91 8 27 15 68 15 90 0 23
7 52 16 64 18 27 15 66 -6 68 -8 1 -33 -1 -55 -5z"/>
<path d="M2602 2395 c-10 -19 1 -92 18 -124 5 -11 10 -39 10 -63 1 -24 7 -61
15 -83 8 -22 15 -59 15 -83 0 -23 7 -59 15 -79 8 -19 15 -54 15 -77 0 -89 39
-156 59 -103 5 12 28 40 50 62 32 32 40 47 41 76 0 19 -7 44 -15 55 -8 10 -15
33 -15 50 0 16 -7 39 -15 50 -8 10 -15 33 -15 50 0 16 -7 39 -15 50 -8 10 -15
33 -15 50 0 16 -7 39 -15 50 -8 10 -15 36 -15 56 0 42 -21 68 -55 68 -13 0
-30 3 -38 6 -9 3 -19 -2 -25 -11z"/>
<path d="M1190 2294 c0 -4 54 -60 120 -126 66 -65 120 -123 120 -128 0 -6 7
-10 15 -10 8 0 15 -7 15 -15 0 -15 12 -20 23 -9 6 6 -275 294 -287 294 -3 0
-6 -3 -6 -6z"/>
<path d="M3385 2021 c-6 -11 9 -23 19 -14 9 9 7 23 -3 23 -6 0 -12 -4 -16 -9z"/>
<path d="M3325 1961 c-6 -11 9 -23 19 -14 9 9 7 23 -3 23 -6 0 -12 -4 -16 -9z"/>
<path d="M3268 1901 c-21 -21 -35 -41 -31 -44 6 -6 83 65 83 77 0 14 -17 3
-52 -33z"/>
<path d="M2606 1213 c-11 -11 -6 -23 9 -23 8 0 15 4 15 9 0 13 -16 22 -24 14z"/>
<path d="M2451 1053 c-9 -16 -13 -16 -31 -5 -22 13 -44 7 -24 -6 6 -4 13 -15
17 -24 9 -24 38 -23 44 2 3 11 9 20 14 20 5 0 9 7 9 15 0 20 -17 19 -29 -2z"/>
<path d="M1236 896 c-7 -18 -17 -52 -21 -74 -4 -23 -11 -44 -16 -48 -5 -3 -9
-16 -9 -29 0 -31 -35 -52 -56 -34 -8 6 -14 19 -14 29 0 23 -26 44 -45 36 -10
-3 -15 -19 -15 -46 0 -35 4 -43 40 -66 31 -21 47 -25 73 -20 35 6 77 51 77 82
0 9 6 30 13 47 8 18 22 56 31 86 15 44 15 55 4 62 -27 17 -48 9 -62 -25z"/>
<path d="M3514 899 c-33 -12 -36 -22 -45 -138 -4 -58 -11 -123 -15 -144 -7
-38 -6 -39 22 -35 23 2 30 9 35 37 9 45 25 58 82 66 40 5 48 4 54 -12 8 -23
23 -33 49 -33 37 0 47 24 21 48 -12 11 -53 64 -92 116 -38 52 -74 97 -80 99
-5 3 -20 1 -31 -4z m76 -146 c0 -6 -10 -19 -22 -27 -32 -23 -52 -3 -43 43 4
20 9 40 13 45 6 11 52 -43 52 -61z"/>
<path d="M1543 818 c-12 -13 -29 -39 -40 -58 -10 -20 -24 -42 -30 -50 -45 -54
-83 -113 -83 -130 0 -16 7 -20 31 -20 25 0 32 5 41 31 10 30 13 31 54 25 59
-8 84 -25 84 -58 0 -20 8 -31 29 -42 16 -9 31 -12 35 -9 10 11 7 49 -9 86 -8
20 -15 58 -15 84 -1 48 -18 127 -33 151 -13 19 -41 14 -64 -10z m39 -123 c3
-39 2 -40 -27 -40 -39 0 -47 36 -14 71 27 29 36 22 41 -31z"/>
<path d="M3195 819 c-23 -10 -62 -19 -91 -19 -36 0 -56 -5 -67 -18 -33 -37
-11 -57 50 -46 42 8 53 -4 53 -58 0 -21 4 -57 10 -80 5 -24 12 -55 15 -70 6
-33 27 -36 55 -8 17 17 19 24 8 43 -6 12 -17 49 -24 82 -7 33 -16 72 -20 87
-6 25 -3 27 37 35 47 9 61 31 39 58 -15 18 -15 18 -65 -6z"/>
<path d="M1871 766 c-7 -9 -17 -63 -21 -120 -5 -58 -14 -114 -19 -125 -16 -28
-14 -39 8 -51 31 -16 51 -2 51 36 0 63 60 115 76 67 8 -25 33 -85 43 -103 14
-26 59 -46 72 -33 9 9 6 23 -11 57 -12 25 -26 48 -31 52 -5 3 -9 12 -9 20 0 9
-7 22 -15 30 -22 22 -18 40 13 63 15 12 32 25 38 30 6 5 20 12 32 15 26 8 29
31 6 40 -35 13 -62 3 -114 -44 -73 -67 -82 -65 -78 12 2 50 0 63 -13 66 -9 1
-22 -4 -28 -12z"/>
<path d="M2698 743 c-42 -5 -41 -2 -38 -93 3 -108 23 -214 40 -217 35 -6 44
13 33 64 -9 38 -9 51 1 61 23 23 60 4 94 -48 37 -57 74 -73 100 -46 16 16 13
21 -38 67 l-55 50 25 19 c14 11 28 20 33 20 4 0 7 18 7 40 0 31 -6 47 -26 65
-28 26 -66 29 -176 18z m132 -57 c6 -8 10 -25 8 -38 -3 -21 -9 -23 -60 -26
-58 -3 -58 -3 -58 26 0 15 5 33 12 40 17 17 83 15 98 -2z"/>
<path d="M2342 727 c-6 -6 -14 -25 -17 -40 -4 -15 -11 -30 -16 -33 -5 -3 -9
-14 -9 -26 0 -21 -17 -64 -53 -135 -24 -48 -16 -67 24 -61 16 2 26 13 33 36 9
32 9 32 72 32 63 0 63 0 72 -32 6 -26 14 -34 35 -36 38 -5 45 21 20 72 -12 22
-29 59 -39 81 -9 22 -23 52 -31 67 -7 14 -13 35 -13 45 0 38 -54 59 -78 30z
m58 -117 l20 -39 -21 -12 c-16 -8 -28 -8 -46 0 l-24 11 21 40 c11 22 22 40 25
40 3 0 14 -18 25 -40z"/>
</g>
</svg>
